# Blender 4.2.1 LTS
# www.blender.org
mtllib 야스2.mtl
o 큐브.001
v -0.999999 58.261253 -1.000000
v -0.999999 60.261253 -1.000000
v 1.000001 58.261253 -1.000000
v 1.000001 60.261253 -1.000000
v 0.000001 58.261253 -3.000000
v 0.000001 60.261253 -3.000000
v -0.999999 58.261253 1.000000
v -0.999999 60.261253 1.000000
v -0.999999 58.261253 -1.000000
v -0.999999 60.261253 -1.000000
v 1.000001 58.261253 1.000000
v 1.000001 60.261253 1.000000
v 1.000001 58.261253 -1.000000
v 1.000001 60.261253 -1.000000
vn -0.8944 -0.0000 -0.4472
vn 0.8944 -0.0000 -0.4472
vn -0.0000 -0.0000 1.0000
vn -0.0000 -1.0000 -0.0000
vn -0.0000 1.0000 -0.0000
vn -1.0000 -0.0000 -0.0000
vn -0.0000 -0.0000 -1.0000
vn 1.0000 -0.0000 -0.0000
vt 0.375000 0.000000
vt 0.625000 0.000000
vt 0.625000 0.250000
vt 0.375000 0.250000
vt 0.375000 0.500000
vt 0.625000 0.500000
vt 0.625000 0.750000
vt 0.375000 0.750000
vt 0.625000 1.000000
vt 0.375000 1.000000
vt 0.125000 0.750000
vt 0.875000 0.500000
vt 0.875000 0.750000
vt 0.125000 0.500000
s 0
f 1/1/1 2/2/1 6/3/1 5/4/1
f 5/5/2 6/6/2 4/7/2 3/8/2
f 3/8/3 4/7/3 2/9/3 1/10/3
f 5/5/4 3/8/4 1/11/4
f 6/12/5 2/13/5 4/7/5
f 7/1/6 8/2/6 10/3/6 9/4/6
f 9/4/7 10/3/7 14/6/7 13/5/7
f 13/5/8 14/6/8 12/7/8 11/8/8
f 11/8/3 12/7/3 8/9/3 7/10/3
f 9/14/4 13/5/4 11/8/4 7/11/4
f 14/6/5 10/12/5 8/13/5 12/7/5
